<?xml version="1.0" encoding="utf-8"?>
<svg version="1.1" xmlns:xlink="http://www.w3.org/1999/xlink" width="200px" height="168px" xmlns="http://www.w3.org/2000/svg">
  <g transform="matrix(1 0 0 1 -144 -262 )">
    <path d="M 143.870192307692 58.8238636363636  C 145.392628205128 57.3125  146.153846153846 55.5227272727273  146.153846153846 53.4545454545455  C 146.153846153846 51.3863636363636  145.392628205128 49.5965909090909  143.870192307692 48.0852272727273  C 142.347756410256 46.5738636363636  140.544871794872 45.8181818181818  138.461538461538 46  L 123 46  L 123 30.5454545454545  C 123.076923076923 28.4772727272727  122.315705128205 26.6875  120.793269230769 25.1761363636364  C 119.270833333333 23.6647727272727  117.467948717949 22.9090909090909  115.384615384615 22.9090909090909  C 113.301282051282 22.9090909090909  111.498397435897 23.6647727272727  109.975961538462 25.1761363636364  C 108.453525641026 26.6875  107.692307692308 28.4772727272727  107 30.5454545454545  L 107 46  L 92.3076923076923 46  C 90.224358974359 45.8181818181818  88.4214743589744 46.5738636363636  86.8990384615385 48.0852272727273  C 85.3766025641026 49.5965909090909  84.6153846153846 51.3863636363636  84.6153846153846 53.4545454545455  C 84.6153846153846 55.5227272727273  85.3766025641026 57.3125  86.8990384615385 58.8238636363636  C 88.4214743589744 60.3352272727273  90.224358974359 61.0909090909091  92.3076923076923 61  L 107 61  L 107 76.3636363636364  C 107.692307692308 78.4318181818182  108.453525641026 80.2215909090909  109.975961538462 81.7329545454545  C 111.498397435897 83.2443181818182  113.301282051282 84  115.384615384615 84  C 117.467948717949 84  119.270833333333 83.2443181818182  120.793269230769 81.7329545454545  C 122.315705128205 80.2215909090909  123.076923076923 78.4318181818182  123 76.3636363636364  L 123 61  L 138.461538461538 61  C 140.544871794872 61.0909090909091  142.347756410256 60.3352272727273  143.870192307692 58.8238636363636  Z M 72.4158653846154 141.928977272727  C 75.4206730769231 144.911931818182  76.9230769230769 148.511363636364  76.9230769230769 152.727272727273  C 76.9230769230769 156.943181818182  75.4206730769231 160.542613636364  72.4158653846154 163.525568181818  C 69.4110576923077 166.508522727273  65.7852564102564 168  61.5384615384615 168  C 57.2916666666667 168  53.6658653846154 166.508522727273  50.6610576923077 163.525568181818  C 47.65625 160.542613636364  46.1538461538462 156.943181818182  46.1538461538462 152.727272727273  C 46.1538461538462 148.511363636364  47.65625 144.911931818182  50.6610576923077 141.928977272727  C 53.6658653846154 138.946022727273  57.2916666666667 137.454545454545  61.5384615384615 137.454545454545  C 65.7852564102564 137.454545454545  69.4110576923077 138.946022727273  72.4158653846154 141.928977272727  Z M 180.108173076923 141.928977272727  C 183.112980769231 144.911931818182  184.615384615385 148.511363636364  184.615384615385 152.727272727273  C 184.615384615385 156.943181818182  183.112980769231 160.542613636364  180.108173076923 163.525568181818  C 177.103365384615 166.508522727273  173.477564102564 168  169.230769230769 168  C 164.983974358974 168  161.358173076923 166.508522727273  158.353365384615 163.525568181818  C 155.348557692308 160.542613636364  153.846153846154 156.943181818182  153.846153846154 152.727272727273  C 153.846153846154 148.511363636364  155.348557692308 144.911931818182  158.353365384615 141.928977272727  C 161.358173076923 138.946022727273  164.983974358974 137.454545454545  169.230769230769 137.454545454545  C 173.477564102564 137.454545454545  177.103365384615 138.946022727273  180.108173076923 141.928977272727  Z M 197.716346153846 17.5397727272727  C 199.238782051282 19.0511363636363  200 20.8409090909091  200 22.9090909090909  L 200 84  C 200 85.9090909090909  199.358974358974 87.5994318181818  198.076923076923 89.0710227272727  C 196.794871794872 90.5426136363636  195.152243589744 91.3977272727273  193.149038461538 91.6363636363636  L 67.6682692307692 106.193181818182  C 67.7483974358974 106.75  67.9286858974359 107.605113636364  68.2091346153846 108.758522727273  C 68.4895833333333 109.911931818182  68.729967948718 110.965909090909  68.9302884615385 111.920454545455  C 69.130608974359 112.875  69.2307692307692 113.75  69.2307692307692 114.545454545455  C 69.2307692307692 115.818181818182  68.2692307692308 118.363636363636  66.3461538461538 122  L 176.923076923077 122  C 179.00641025641 122.181818181818  180.809294871795 122.9375  182.331730769231 124.448863636364  C 183.854166666667 125.960227272727  184.615384615385 127.75  184.615384615385 129.818181818182  C 184.615384615385 131.886363636364  183.854166666667 133.676136363636  182.331730769231 135.1875  C 180.809294871795 136.698863636364  179.00641025641 137.454545454545  176.923076923077 137  L 53.8461538461538 137  C 51.7628205128205 137.454545454545  49.9599358974359 136.698863636364  48.4375 135.1875  C 46.9150641025641 133.676136363636  46.1538461538462 131.886363636364  46.1538461538462 129.818181818182  C 46.1538461538462 128.704545454545  46.5945512820513 127.133522727273  47.4759615384615 125.105113636364  C 48.3573717948718 123.076704545455  49.5392628205128 120.710227272727  51.0216346153846 118.005681818182  C 52.5040064102564 115.301136363636  53.3253205128205 113.789772727273  53.4855769230769 113.471590909091  L 32.2115384615385 16  L 7.69230769230769 16  C 5.60897435897436 15.2727272727273  3.80608974358974 14.5170454545454  2.28365384615385 13.0056818181818  C 0.761217948717949 11.4943181818182  0 9.70454545454545  0 7.63636363636363  C 0 5.56818181818181  0.761217948717949 3.77840909090907  2.28365384615385 2.26704545454546  C 3.80608974358974 0.755681818181802  5.60897435897436 0  7.69230769230769 0  L 38.4615384615385 0  C 39.7435897435897 0  40.8854166666667 0.258522727272716  41.8870192307692 0.775568181818185  C 42.8886217948718 1.29261363636364  43.6899038461538 1.90909090909091  44.2908653846154 2.625  C 44.8918269230769 3.34090909090909  45.4126602564103 4.31534090909088  45.8533653846154 5.54829545454546  C 46.2940705128205 6.78124999999999  46.5945512820513 7.83522727272725  46.7548076923077 8.71022727272728  C 46.9150641025641 9.58522727272727  47.1354166666667 10.7585227272727  47.4158653846154 12.2301136363636  C 47.6963141025641 13.7017045454545  47.8766025641026 14.7159090909091  47.9567307692308 16  L 192.307692307692 16  C 194.391025641026 15.2727272727273  196.19391025641 16.0284090909091  197.716346153846 17.5397727272727  Z " fill-rule="nonzero" fill="#000000" stroke="none" transform="matrix(1 0 0 1 144 262 )" />
  </g>
</svg>